<svg width="24" height="24" viewBox="0 0 24 24" fill="none" xmlns="http://www.w3.org/2000/svg">
<path d="M9.99997 18C11.7749 17.9996 13.4988 17.4054 14.897 16.312L19.293 20.708L20.707 19.294L16.311 14.898C17.405 13.4996 17.9995 11.7754 18 9.99996C18 5.58896 14.411 1.99996 9.99997 1.99996C5.58897 1.99996 1.99997 5.58896 1.99997 9.99996C1.99997 14.411 5.58897 18 9.99997 18ZM9.99997 3.99996C13.309 3.99996 16 6.69096 16 9.99996C16 13.309 13.309 16 9.99997 16C6.69097 16 3.99997 13.309 3.99997 9.99996C3.99997 6.69096 6.69097 3.99996 9.99997 3.99996Z" fill="#2F80ED"/>
</svg>
